PathFileType	4	(X/Y/Z)	Kaydara																																																																																																																									
DataRate	CameraRate	NumFrames	NumMarkers	Units	OrigDataRate	OrigDataStartFrame	OrigNumFrames																																																																																																																					
30	30	9	41	mm	30	124	198																																																																																																																					
Frame#	Time	NABA_LFHD			NABA_RFHD			NABA_LBHD			NABA_RBHD			NABA_LFTShould			NABA_RFTShould			NABA_LRRShould			NABA_RRRShould			NABA_T10			NABA_STRN			NABA_TRUN			NABA_LSHO			NABA_LUPA			NABA_LELB			NABA_LFRM			NABA_LWRA			NABA_LWRB			NABA_LFIN			NABA_RSHO			NABA_RUPA			NABA_RELB			NABA_RFRM			NABA_RWRA			NABA_RWRB			NABA_RFIN			NABA_LFWT			NABA_RFWT			NABA_LBWT			NABA_RBWT			NABA_LTHI			NABA_LKNE			NABA_LSHN			NABA_LANK			NABA_LHEE			NABA_LTOE			NABA_RTHI			NABA_RKNE			NABA_RSHN			NABA_RANK			NABA_RHEE			NABA_RTOE		
		X1	Y1	Z1	X2	Y2	Z2	X3	Y3	Z3	X4	Y4	Z4	X5	Y5	Z5	X6	Y6	Z6	X7	Y7	Z7	X8	Y8	Z8	X9	Y9	Z9	X10	Y10	Z10	X11	Y11	Z11	X12	Y12	Z12	X13	Y13	Z13	X14	Y14	Z14	X15	Y15	Z15	X16	Y16	Z16	X17	Y17	Z17	X18	Y18	Z18	X19	Y19	Z19	X20	Y20	Z20	X21	Y21	Z21	X22	Y22	Z22	X23	Y23	Z23	X24	Y24	Z24	X25	Y25	Z25	X26	Y26	Z26	X27	Y27	Z27	X28	Y28	Z28	X29	Y29	Z29	X30	Y30	Z30	X31	Y31	Z31	X32	Y32	Z32	X33	Y33	Z33	X34	Y34	Z34	X35	Y35	Z35	X36	Y36	Z36	X37	Y37	Z37	X38	Y38	Z38	X39	Y39	Z39	X40	Y40	Z40	X41	Y41	Z41
																																																																																																																												
124	4.11	312.87384	1584.87335	584.64134	142.90881	1565.86212	609.49959	327.12086	1551.12823	463.12397	109.64581	1546.21124	514.32014	303.6208	1309.06189	576.55964	167.63029	1305.68024	576.02306	304.4169	1347.9837	451.43257	154.50691	1345.89035	458.15914	240.81923	1176.85913	402.79827	236.53208	1259.40872	628.09052	236.88313	1168.54538	686.48026	402.66323	1322.9335	520.08858	459.50333	1081.8219	507.86018	472.72495	1003.61137	540.10487	465.1786	929.44214	526.77021	426.73496	789.70787	626.28731	498.12054	793.20824	615.79735	486.47648	740.46959	667.21916	73.5522	1319.96323	523.87878	32.06673	1123.9518	451.27148	-1.99866	998.9859	486.80286	-7.6745	903.96896	491.1248	51.81588	775.90927	568.70209	-22.14035	765.97038	562.93884	-6.87207	725.82298	592.32185	370.8989	926.0553	617.32189	106.05309	919.2852	621.30699	310.23632	988.32932	446.38901	146.53506	990.83031	444.98646	366.57433	625.2528	484.1473	352.91981	475.30014	539.65553	286.61579	282.66287	562.37419	309.77011	129.04927	497.7726	253.52444	84.26689	437.3576	269.8457	50.45141	624.16981	104.30151	620.69427	556.50299	116.32083	497.11407	722.41165	132.19732	334.66118	634.63615	129.92047	215.10098	468.8662	189.16206	213.75135	393.59566	129.81648	77.81485	521.77834
125	4.143	313.17249	1582.73697	622.85862	143.07794	1562.71988	646.87744	328.04417	1550.23621	501.10718	110.38234	1543.76587	551.35868	304.74981	1307.13699	612.29515	168.60048	1303.58292	610.56812	306.51409	1346.39969	487.80308	156.7098	1344.23157	492.82494	243.5351	1175.68047	437.49584	237.24342	1257.04834	662.85149	237.40017	1165.66841	720.41016	404.22001	1321.56326	557.01969	463.33138	1079.89426	556.84994	476.34567	1003.47031	593.69846	469.20918	928.05962	585.81367	427.43671	796.77986	695.0576	499.17057	799.29459	686.48499	485.60455	750.89088	741.60103	75.00089	1317.77649	557.23377	36.91042	1123.51997	479.87755	1.97826	997.81662	511.38367	-3.35079	902.56721	513.38707	51.84019	773.3094	592.02541	-21.2069	763.31284	581.98059	-8.51094	723.45879	612.15618	371.71982	923.59505	649.91318	107.35244	918.82484	656.83739	309.87396	985.69748	480.04997	146.56152	988.34007	478.98373	366.27285	625.85464	509.99226	352.39548	474.07021	559.73675	286.04986	280.44252	573.92105	308.61725	129.71872	502.11716	251.84618	87.24469	440.12493	269.72532	50.25577	624.65664	103.85863	621.54945	608.05698	122.92241	508.95424	779.87465	136.70235	335.816	714.01184	133.51023	190.1066	570.86834	192.60878	174.28501	497.02698	131.66046	67.78638	648.39737
126	4.177	313.50544	1578.85208	660.82809	143.33056	1558.27713	684.16595	328.80585	1547.33292	538.90446	111.02717	1539.9678	588.32436	305.75365	1303.77609	648.06129	169.44981	1300.05081	645.6086	307.90936	1343.15399	523.84308	158.1844	1341.19476	528.1757	245.15923	1172.86987	472.41581	238.11747	1253.2019	697.86705	238.10999	1161.39755	754.65988	405.23937	1318.2019	593.65604	465.3104	1076.80458	604.60152	478.3894	1002.05978	646.09528	471.30119	925.94429	643.61824	427.14573	803.56529	761.85272	499.07387	804.96635	754.1301	484.32068	760.87753	812.66014	75.95309	1314.20044	591.4027	41.2223	1121.43784	509.91241	5.73241	995.14671	537.71236	0.56371	899.81247	537.71709	53.12896	768.75084	615.35816	-20.2139	759.52385	602.8931	-8.80587	719.51347	633.22575	372.79198	920.91179	685.056	107.90325	916.21536	692.25609	309.6372	982.089	514.62456	146.44153	984.39026	513.5157	366.41663	625.3474	536.75644	351.59195	472.1143	580.68714	284.80522	277.89587	585.95955	306.48418	130.36267	506.75045	249.11196	89.93855	443.80981	269.19876	49.90685	625.3389	105.07929	620.67154	653.14018	127.87084	515.78144	828.35091	139.65868	335.47844	788.33199	135.87595	164.79424	676.30798	194.86471	134.45973	606.54572	134.80362	61.28325	776.72287
127	4.21	313.77863	1573.40851	698.73505	143.52864	1552.73331	721.43204	329.40056	1542.47513	576.6552	111.49392	1534.93942	625.44312	306.12799	1298.80997	684.64111	169.7403	1295.17319	681.41853	308.76364	1338.41217	560.48462	158.99768	1336.54007	563.99975	246.24231	1168.34251	508.00686	238.51398	1247.97409	733.81889	238.24818	1155.78491	790.06912	405.68504	1313.11249	630.91431	465.52074	1072.20459	651.26312	478.82153	999.18076	696.42181	471.43665	922.70668	699.13872	425.76736	809.5224	825.5735	497.91222	810.05524	818.48602	482.4297	770.31837	879.88129	76.29677	1309.10843	626.39679	44.13864	1117.71935	541.80866	8.21974	991.03745	566.68682	3.54908	895.55977	564.32411	54.17808	763.28766	641.57646	-18.56341	753.99521	626.83098	-8.30948	713.80722	656.83914	373.13835	916.15242	721.58401	108.07048	911.70349	728.19489	309.92191	977.67075	550.60951	146.85999	979.50394	549.73564	365.54295	623.70171	563.73077	350.0864	469.12476	601.70033	283.15937	274.69259	597.95746	303.82523	131.05731	511.48842	245.46009	93.34325	447.26891	268.75381	49.98891	626.30707	108.38398	617.20436	692.11807	130.28216	516.07269	868.03261	140.81909	334.1021	856.49506	136.73938	144.30466	782.58461	195.43486	99.88919	720.25078	137.68061	63.37441	902.85851
128	4.243	313.89425	1566.96915	736.47957	143.52182	1546.66946	758.95302	329.5752	1536.26022	614.45511	111.59181	1529.09073	662.8891	305.78678	1292.65579	722.60925	169.37338	1289.17999	718.35457	309.13631	1332.50336	598.17867	159.19591	1330.64133	600.76214	247.18998	1162.686	544.92722	238.13047	1241.60355	771.29463	237.56632	1149.00772	827.05215	405.52437	1306.92078	669.73747	464.30149	1066.53229	696.60263	478.05817	994.80774	744.48868	470.12089	918.27065	751.77681	423.18481	814.06845	885.48378	495.53394	813.3963	878.42155	479.9511	778.433	942.33673	76.04683	1302.81662	662.6609	45.21711	1112.88086	575.19768	8.93656	985.75554	598.46844	4.30898	890.37872	594.59602	55.12247	756.92719	669.39896	-17.60711	747.72575	654.50844	-6.98131	706.77505	683.63617	373.83747	909.41116	757.46834	107.87406	905.4351	764.94942	310.33354	972.42607	587.7507	147.02559	973.86818	586.16611	364.44771	622.31312	590.54028	349.08062	466.54411	622.67036	281.83693	272.14455	610.09785	301.33152	132.7774	516.45344	241.88511	98.03924	450.92987	268.17081	49.81147	627.06844	111.32085	610.32986	725.89272	130.01814	509.28329	900.62492	140.59517	332.97649	915.71785	137.57511	132.33206	883.98621	196.80431	75.35314	832.75452	137.98834	75.95582	1019.13681
129	4.277	313.44206	1561.00815	774.43718	143.09246	1540.85785	796.66939	329.29527	1530.01511	652.52472	111.22664	1523.12775	700.68977	304.75328	1286.13525	762.29073	168.42951	1282.61887	756.98601	309.31938	1326.83289	637.63535	159.08846	1324.7435	639.00021	247.64267	1156.80771	583.24867	236.83323	1234.51004	810.31174	235.80368	1141.73592	865.75729	404.87606	1300.28641	710.45578	462.50256	1059.83513	740.61134	476.40831	989.23294	789.86725	467.60616	912.63153	801.17401	419.72927	816.97533	940.73685	492.38636	814.7847	933.33511	476.87553	784.50775	999.26201	75.50651	1296.40015	700.64758	44.92914	1107.4733	611.46423	8.2684	980.06012	633.05592	3.70338	884.8539	627.72911	55.51255	750.54901	700.01465	-17.34179	741.10176	685.36606	-5.69292	699.23668	713.37852	373.70728	903.43964	794.98634	106.96237	898.4404	803.25653	309.42299	967.13898	626.17737	146.31335	967.69135	624.10088	363.41846	622.18685	618.85872	349.63684	464.86145	645.25368	282.76924	270.58662	623.52493	301.1277	136.42806	521.94851	240.80814	105.05867	455.33844	268.65843	49.48848	627.91794	112.41293	601.65543	757.34825	128.39692	497.70363	929.74228	139.83239	331.66779	966.74301	138.8263	128.48518	971.85532	197.95784	63.78361	932.68456	138.60359	97.10615	1117.04895
130	4.31	312.59466	1556.31256	812.659	142.17334	1536.47125	834.83696	328.49377	1524.61273	690.90935	110.36753	1518.27286	738.9386	302.98199	1280.61981	803.34969	166.75495	1277.40196	796.83304	309.11886	1321.91315	678.23456	158.39851	1319.70947	678.13484	247.5902	1151.58592	623.38799	234.5878	1228.6454	850.75172	232.99046	1136.12488	906.45424	403.60558	1294.74701	752.78389	460.33451	1054.01085	783.25027	474.38137	983.55957	832.71019	464.65767	907.10564	846.75842	415.53696	818.10455	990.37643	487.99015	814.28574	983.03146	473.11684	788.13362	1050.00473	74.37128	1291.34537	739.60159	44.10863	1103.16666	649.59427	7.21969	975.44296	670.12802	2.58516	880.57556	663.51875	55.08646	745.19051	732.96188	-18.00104	735.94299	718.89191	-5.50371	693.13873	745.78621	373.41167	898.7426	834.03427	106.13084	892.50221	843.81393	307.43942	963.02261	665.86182	144.28966	962.63115	665.59441	364.10221	622.55714	650.17204	352.18391	464.06185	671.56738	285.90908	269.99655	639.62292	304.20328	142.29909	529.80408	244.0275	115.20838	461.22734	270.54829	49.32106	629.53575	110.22534	595.02541	791.29852	125.43428	486.59492	959.39629	139.75073	330.62347	1010.50537	140.19743	130.30579	1041.48338	198.06656	60.94693	1008.3387	144.78816	114.86265	1190.72189
131	4.343	311.40291	1553.35175	851.10695	141.01727	1534.24728	873.43056	327.22317	1520.69656	729.59518	109.15934	1515.39291	777.70493	300.73446	1277.91084	845.35172	164.4166	1274.70985	837.98134	308.10574	1318.62991	719.41536	157.35122	1316.19476	718.54248	246.69779	1147.48772	665.3315	231.8372	1226.19743	892.7504	229.70631	1133.94936	949.12529	401.87962	1291.28326	795.46036	457.92919	1050.47722	824.5166	471.96381	979.89853	873.39737	461.69846	903.33336	888.49205	411.02028	817.4881	1033.42766	483.41522	812.79655	1026.67381	468.49518	789.0506	1094.00352	72.74003	1288.53516	779.60732	43.69288	1100.80315	689.34875	6.23534	972.9483	709.08859	1.51459	878.40431	701.60385	53.38809	742.06299	769.3248	-19.75258	733.14468	754.95132	-6.9348	689.64249	781.03027	372.09995	895.43228	875.40695	104.60556	889.44099	885.89821	304.32484	959.91699	707.75238	141.66941	959.97581	707.62451	364.53293	623.75198	685.81261	355.4158	464.46423	702.44255	290.74789	271.20314	658.54309	310.16483	151.51226	540.08911	250.65182	129.39318	469.62631	273.88725	49.18643	632.06066	107.73013	591.42883	830.5941	125.83635	481.29509	997.425	140.36885	326.84898	1050.06592	139.74259	126.5627	1082.22069	194.72483	55.31988	1048.01796	153.6168	112.32611	1234.6859
132	4.377	309.94333	1552.35962	889.71794	139.53443	1533.97003	912.19566	325.68661	1518.18298	768.60954	107.56989	1514.08966	816.78436	298.02837	1277.62711	887.86484	161.74616	1274.45618	879.95468	306.37388	1316.73615	761.35185	155.5946	1314.21753	759.93294	245.11623	1144.61487	708.7822	228.73384	1226.77917	935.88593	226.23608	1134.96994	993.11523	399.73465	1290.51514	838.34991	455.16529	1050.07614	863.8475	469.34906	978.49899	911.41174	458.84762	901.67023	926.12534	406.79295	815.40085	1070.36751	479.43157	810.63316	1064.18442	463.51204	787.12242	1131.5374	70.47894	1287.72598	820.3257	42.96548	1100.29419	730.87891	5.22171	972.42538	749.87953	0.44629	878.1456	741.80077	50.36663	741.10901	809.45152	-22.52154	732.60216	793.51166	-10.20883	688.60573	819.34341	369.15546	893.61473	920.35004	100.74927	889.5192	931.97975	300.85968	957.26585	752.66365	139.19438	958.03391	752.73064	363.0751	624.5047	726.43425	358.24257	464.96586	740.07156	295.54106	273.41658	683.23753	316.80189	163.88853	555.34054	258.09597	148.1131	483.16956	277.7005	48.67742	636.35685	104.1554	591.1261	874.49295	125.17241	479.20105	1036.56677	140.82422	314.79786	1079.65553	143.05939	112.37983	1095.07645	199.97694	45.84171	1057.60368	154.8879	85.78011	1242.82669
